<mxfile host="app.diagrams.net" agent="Mozilla/5.0 (Windows NT 10.0; Win64; x64) AppleWebKit/537.36 (KHTML, like Gecko) Chrome/138.0.0.0 YaBrowser/25.8.0.0 Safari/537.36" version="28.2.7">
  <diagram name="Страница — 1" id="jgSQj21MmRGN5Hcu17YA">
    <mxGraphModel dx="1906" dy="997" grid="1" gridSize="10" guides="1" tooltips="1" connect="1" arrows="1" fold="1" page="1" pageScale="1" pageWidth="827" pageHeight="1169" math="0" shadow="0">
      <root>
        <mxCell id="0" />
        <mxCell id="1" parent="0" />
        <mxCell id="O0AXEfCne8WzT-DTW3_N-217" value="" style="shape=table;startSize=0;container=1;collapsible=0;childLayout=tableLayout;opacity=20;" parent="1" vertex="1">
          <mxGeometry x="112" y="204" width="1170" height="458" as="geometry" />
        </mxCell>
        <mxCell id="O0AXEfCne8WzT-DTW3_N-218" value="" style="shape=tableRow;horizontal=0;startSize=0;swimlaneHead=0;swimlaneBody=0;strokeColor=inherit;top=0;left=0;bottom=0;right=0;collapsible=0;dropTarget=0;fillColor=none;points=[[0,0.5],[1,0.5]];portConstraint=eastwest;" parent="O0AXEfCne8WzT-DTW3_N-217" vertex="1">
          <mxGeometry width="1170" height="60" as="geometry" />
        </mxCell>
        <mxCell id="O0AXEfCne8WzT-DTW3_N-219" value="&lt;p&gt;&lt;b style=&quot;&quot;&gt;Бизнес-возможности -&amp;gt;&lt;/b&gt;&lt;b&gt;&lt;/b&gt;&lt;/p&gt;&lt;p&gt;&lt;b style=&quot;background-color: transparent; color: light-dark(rgb(0, 0, 0), rgb(255, 255, 255));&quot;&gt;Подразделение \|/&lt;/b&gt;&lt;/p&gt;" style="shape=partialRectangle;html=1;whiteSpace=wrap;connectable=0;strokeColor=#9673a6;overflow=hidden;fillColor=#e1d5e7;top=0;left=0;bottom=0;right=0;pointerEvents=1;align=left;" parent="O0AXEfCne8WzT-DTW3_N-218" vertex="1">
          <mxGeometry width="242" height="60" as="geometry">
            <mxRectangle width="242" height="60" as="alternateBounds" />
          </mxGeometry>
        </mxCell>
        <mxCell id="O0AXEfCne8WzT-DTW3_N-220" value="&lt;b&gt;Продажи в сети отделений&lt;/b&gt;" style="shape=partialRectangle;html=1;whiteSpace=wrap;connectable=0;strokeColor=#6c8ebf;overflow=hidden;fillColor=#dae8fc;top=0;left=0;bottom=0;right=0;pointerEvents=1;align=center;" parent="O0AXEfCne8WzT-DTW3_N-218" vertex="1">
          <mxGeometry x="242" width="157" height="60" as="geometry">
            <mxRectangle width="157" height="60" as="alternateBounds" />
          </mxGeometry>
        </mxCell>
        <mxCell id="O0AXEfCne8WzT-DTW3_N-221" value="&lt;span style=&quot;font-weight: 700;&quot;&gt;Продажи через кол-центр&lt;/span&gt;" style="shape=partialRectangle;html=1;whiteSpace=wrap;connectable=0;strokeColor=#6c8ebf;overflow=hidden;fillColor=#dae8fc;top=0;left=0;bottom=0;right=0;pointerEvents=1;align=center;" parent="O0AXEfCne8WzT-DTW3_N-218" vertex="1">
          <mxGeometry x="399" width="140" height="60" as="geometry">
            <mxRectangle width="140" height="60" as="alternateBounds" />
          </mxGeometry>
        </mxCell>
        <mxCell id="O0AXEfCne8WzT-DTW3_N-222" value="&lt;table data-start=&quot;2052&quot; data-end=&quot;2894&quot; class=&quot;w-fit min-w-(--thread-content-width)&quot; style=&quot;&quot;&gt;&lt;thead data-start=&quot;2052&quot; data-end=&quot;2205&quot;&gt;&lt;tr data-start=&quot;2052&quot; data-end=&quot;2205&quot;&gt;&lt;th data-start=&quot;2107&quot; data-end=&quot;2133&quot; data-col-size=&quot;sm&quot;&gt;Digital-оповещения клиентов&lt;/th&gt;&lt;th data-start=&quot;2133&quot; data-end=&quot;2158&quot; data-col-size=&quot;sm&quot;&gt;&lt;br&gt;&lt;/th&gt;&lt;/tr&gt;&lt;/thead&gt;&lt;/table&gt;" style="shape=partialRectangle;html=1;whiteSpace=wrap;connectable=0;strokeColor=#6c8ebf;overflow=hidden;fillColor=#dae8fc;top=0;left=0;bottom=0;right=0;pointerEvents=1;align=center;" parent="O0AXEfCne8WzT-DTW3_N-218" vertex="1">
          <mxGeometry x="539" width="138" height="60" as="geometry">
            <mxRectangle width="138" height="60" as="alternateBounds" />
          </mxGeometry>
        </mxCell>
        <mxCell id="O0AXEfCne8WzT-DTW3_N-223" value="&lt;b&gt;Обслуживание депозитных процессов&lt;/b&gt;" style="shape=partialRectangle;html=1;whiteSpace=wrap;connectable=0;strokeColor=#6c8ebf;overflow=hidden;fillColor=#dae8fc;top=0;left=0;bottom=0;right=0;pointerEvents=1;align=center;" parent="O0AXEfCne8WzT-DTW3_N-218" vertex="1">
          <mxGeometry x="677" width="160" height="60" as="geometry">
            <mxRectangle width="160" height="60" as="alternateBounds" />
          </mxGeometry>
        </mxCell>
        <mxCell id="O0AXEfCne8WzT-DTW3_N-224" value="&lt;b&gt;Обслуживание кредитных процессов&lt;/b&gt;" style="shape=partialRectangle;html=1;whiteSpace=wrap;connectable=0;strokeColor=#6c8ebf;overflow=hidden;fillColor=#dae8fc;top=0;left=0;bottom=0;right=0;pointerEvents=1;align=center;" parent="O0AXEfCne8WzT-DTW3_N-218" vertex="1">
          <mxGeometry x="837" width="138" height="60" as="geometry">
            <mxRectangle width="138" height="60" as="alternateBounds" />
          </mxGeometry>
        </mxCell>
        <mxCell id="O0AXEfCne8WzT-DTW3_N-225" value="&lt;table data-start=&quot;2052&quot; data-end=&quot;2894&quot; class=&quot;w-fit min-w-(--thread-content-width)&quot; style=&quot;&quot;&gt;&lt;thead data-start=&quot;2052&quot; data-end=&quot;2205&quot;&gt;&lt;tr data-start=&quot;2052&quot; data-end=&quot;2205&quot;&gt;&lt;th data-start=&quot;2178&quot; data-end=&quot;2205&quot; data-col-size=&quot;md&quot;&gt;Управление договорами&lt;/th&gt;&lt;/tr&gt;&lt;/thead&gt;&lt;tbody data-start=&quot;2363&quot; data-end=&quot;2894&quot;&gt;&lt;tr data-start=&quot;2363&quot; data-end=&quot;2453&quot;&gt;&lt;td data-start=&quot;2363&quot; data-end=&quot;2379&quot; data-col-size=&quot;sm&quot;&gt;&lt;/td&gt;&lt;/tr&gt;&lt;/tbody&gt;&lt;/table&gt;" style="shape=partialRectangle;html=1;whiteSpace=wrap;connectable=0;strokeColor=#6c8ebf;overflow=hidden;fillColor=#dae8fc;top=0;left=0;bottom=0;right=0;pointerEvents=1;align=center;" parent="O0AXEfCne8WzT-DTW3_N-218" vertex="1">
          <mxGeometry x="975" width="195" height="60" as="geometry">
            <mxRectangle width="195" height="60" as="alternateBounds" />
          </mxGeometry>
        </mxCell>
        <mxCell id="O0AXEfCne8WzT-DTW3_N-226" value="" style="shape=tableRow;horizontal=0;startSize=0;swimlaneHead=0;swimlaneBody=0;strokeColor=inherit;top=0;left=0;bottom=0;right=0;collapsible=0;dropTarget=0;fillColor=none;points=[[0,0.5],[1,0.5]];portConstraint=eastwest;" parent="O0AXEfCne8WzT-DTW3_N-217" vertex="1">
          <mxGeometry y="60" width="1170" height="65" as="geometry" />
        </mxCell>
        <mxCell id="O0AXEfCne8WzT-DTW3_N-227" value="&lt;b&gt;Управление обслуживанием в сети отделений&amp;nbsp;&lt;/b&gt;&lt;div&gt;&lt;b&gt;&lt;i&gt;Фронт-офис&lt;/i&gt;&lt;/b&gt;&lt;/div&gt;" style="shape=partialRectangle;html=1;whiteSpace=wrap;connectable=0;strokeColor=#82b366;overflow=hidden;fillColor=#d5e8d4;top=0;left=0;bottom=0;right=0;pointerEvents=1;align=left;" parent="O0AXEfCne8WzT-DTW3_N-226" vertex="1">
          <mxGeometry width="242" height="65" as="geometry">
            <mxRectangle width="242" height="65" as="alternateBounds" />
          </mxGeometry>
        </mxCell>
        <mxCell id="O0AXEfCne8WzT-DTW3_N-228" value="АБС (ручной ввод, офлайн)" style="shape=partialRectangle;html=1;whiteSpace=wrap;connectable=0;strokeColor=inherit;overflow=hidden;fillColor=none;top=0;left=0;bottom=0;right=0;pointerEvents=1;align=left;" parent="O0AXEfCne8WzT-DTW3_N-226" vertex="1">
          <mxGeometry x="242" width="157" height="65" as="geometry">
            <mxRectangle width="157" height="65" as="alternateBounds" />
          </mxGeometry>
        </mxCell>
        <mxCell id="O0AXEfCne8WzT-DTW3_N-229" value="" style="shape=partialRectangle;html=1;whiteSpace=wrap;connectable=0;strokeColor=inherit;overflow=hidden;fillColor=none;top=0;left=0;bottom=0;right=0;pointerEvents=1;align=left;" parent="O0AXEfCne8WzT-DTW3_N-226" vertex="1">
          <mxGeometry x="399" width="140" height="65" as="geometry">
            <mxRectangle width="140" height="65" as="alternateBounds" />
          </mxGeometry>
        </mxCell>
        <mxCell id="O0AXEfCne8WzT-DTW3_N-230" value="" style="shape=partialRectangle;html=1;whiteSpace=wrap;connectable=0;strokeColor=inherit;overflow=hidden;fillColor=none;top=0;left=0;bottom=0;right=0;pointerEvents=1;align=left;" parent="O0AXEfCne8WzT-DTW3_N-226" vertex="1">
          <mxGeometry x="539" width="138" height="65" as="geometry">
            <mxRectangle width="138" height="65" as="alternateBounds" />
          </mxGeometry>
        </mxCell>
        <mxCell id="O0AXEfCne8WzT-DTW3_N-231" value="- Инициирует, передаёт в БО (email)&lt;div&gt;- создание/загрузка в АБС&lt;/div&gt;" style="shape=partialRectangle;html=1;whiteSpace=wrap;connectable=0;strokeColor=inherit;overflow=hidden;fillColor=none;top=0;left=0;bottom=0;right=0;pointerEvents=1;align=left;" parent="O0AXEfCne8WzT-DTW3_N-226" vertex="1">
          <mxGeometry x="677" width="160" height="65" as="geometry">
            <mxRectangle width="160" height="65" as="alternateBounds" />
          </mxGeometry>
        </mxCell>
        <mxCell id="O0AXEfCne8WzT-DTW3_N-232" value="Инициирует заявку в АБС" style="shape=partialRectangle;html=1;whiteSpace=wrap;connectable=0;strokeColor=inherit;overflow=hidden;fillColor=none;top=0;left=0;bottom=0;right=0;pointerEvents=1;align=left;" parent="O0AXEfCne8WzT-DTW3_N-226" vertex="1">
          <mxGeometry x="837" width="138" height="65" as="geometry">
            <mxRectangle width="138" height="65" as="alternateBounds" />
          </mxGeometry>
        </mxCell>
        <mxCell id="O0AXEfCne8WzT-DTW3_N-233" value="Выдача, подписание" style="shape=partialRectangle;html=1;whiteSpace=wrap;connectable=0;strokeColor=inherit;overflow=hidden;fillColor=none;top=0;left=0;bottom=0;right=0;pointerEvents=1;align=left;" parent="O0AXEfCne8WzT-DTW3_N-226" vertex="1">
          <mxGeometry x="975" width="195" height="65" as="geometry">
            <mxRectangle width="195" height="65" as="alternateBounds" />
          </mxGeometry>
        </mxCell>
        <mxCell id="O0AXEfCne8WzT-DTW3_N-234" value="" style="shape=tableRow;horizontal=0;startSize=0;swimlaneHead=0;swimlaneBody=0;strokeColor=inherit;top=0;left=0;bottom=0;right=0;collapsible=0;dropTarget=0;fillColor=none;points=[[0,0.5],[1,0.5]];portConstraint=eastwest;" parent="O0AXEfCne8WzT-DTW3_N-217" vertex="1">
          <mxGeometry y="125" width="1170" height="54" as="geometry" />
        </mxCell>
        <mxCell id="O0AXEfCne8WzT-DTW3_N-235" value="&lt;table data-start=&quot;2052&quot; data-end=&quot;2894&quot; class=&quot;w-fit min-w-(--thread-content-width)&quot; style=&quot;&quot;&gt;&lt;tbody data-start=&quot;2363&quot; data-end=&quot;2894&quot;&gt;&lt;tr data-start=&quot;2454&quot; data-end=&quot;2550&quot;&gt;&lt;td data-start=&quot;2454&quot; data-end=&quot;2483&quot; data-col-size=&quot;sm&quot;&gt;&lt;b&gt;Управление IT&lt;/b&gt;&lt;/td&gt;&lt;td data-col-size=&quot;sm&quot; data-start=&quot;2483&quot; data-end=&quot;2487&quot;&gt;&lt;br&gt;&lt;/td&gt;&lt;/tr&gt;&lt;/tbody&gt;&lt;/table&gt;" style="shape=partialRectangle;html=1;whiteSpace=wrap;connectable=0;strokeColor=#003300;overflow=hidden;fillColor=#d5e8d4;top=0;left=0;bottom=0;right=0;pointerEvents=1;align=left;" parent="O0AXEfCne8WzT-DTW3_N-234" vertex="1">
          <mxGeometry width="242" height="54" as="geometry">
            <mxRectangle width="242" height="54" as="alternateBounds" />
          </mxGeometry>
        </mxCell>
        <mxCell id="O0AXEfCne8WzT-DTW3_N-236" value="" style="shape=partialRectangle;html=1;whiteSpace=wrap;connectable=0;strokeColor=inherit;overflow=hidden;fillColor=none;top=0;left=0;bottom=0;right=0;pointerEvents=1;align=left;" parent="O0AXEfCne8WzT-DTW3_N-234" vertex="1">
          <mxGeometry x="242" width="157" height="54" as="geometry">
            <mxRectangle width="157" height="54" as="alternateBounds" />
          </mxGeometry>
        </mxCell>
        <mxCell id="O0AXEfCne8WzT-DTW3_N-237" value="Поддержка CRM/платформы&amp;nbsp;" style="shape=partialRectangle;html=1;whiteSpace=wrap;connectable=0;strokeColor=inherit;overflow=hidden;fillColor=none;top=0;left=0;bottom=0;right=0;pointerEvents=1;align=left;" parent="O0AXEfCne8WzT-DTW3_N-234" vertex="1">
          <mxGeometry x="399" width="140" height="54" as="geometry">
            <mxRectangle width="140" height="54" as="alternateBounds" />
          </mxGeometry>
        </mxCell>
        <mxCell id="O0AXEfCne8WzT-DTW3_N-238" value="СМС-шлюз, интеграции" style="shape=partialRectangle;html=1;whiteSpace=wrap;connectable=0;strokeColor=inherit;overflow=hidden;fillColor=none;top=0;left=0;bottom=0;right=0;pointerEvents=1;align=left;" parent="O0AXEfCne8WzT-DTW3_N-234" vertex="1">
          <mxGeometry x="539" width="138" height="54" as="geometry">
            <mxRectangle width="138" height="54" as="alternateBounds" />
          </mxGeometry>
        </mxCell>
        <mxCell id="O0AXEfCne8WzT-DTW3_N-239" value="Поддержка АБС/интеграций&amp;nbsp;" style="shape=partialRectangle;html=1;whiteSpace=wrap;connectable=0;strokeColor=inherit;overflow=hidden;fillColor=none;top=0;left=0;bottom=0;right=0;pointerEvents=1;align=left;" parent="O0AXEfCne8WzT-DTW3_N-234" vertex="1">
          <mxGeometry x="677" width="160" height="54" as="geometry">
            <mxRectangle width="160" height="54" as="alternateBounds" />
          </mxGeometry>
        </mxCell>
        <mxCell id="O0AXEfCne8WzT-DTW3_N-240" value="Поддержка Конвейера/скоринга" style="shape=partialRectangle;html=1;whiteSpace=wrap;connectable=0;strokeColor=inherit;overflow=hidden;fillColor=none;top=0;left=0;bottom=0;right=0;pointerEvents=1;align=left;" parent="O0AXEfCne8WzT-DTW3_N-234" vertex="1">
          <mxGeometry x="837" width="138" height="54" as="geometry">
            <mxRectangle width="138" height="54" as="alternateBounds" />
          </mxGeometry>
        </mxCell>
        <mxCell id="O0AXEfCne8WzT-DTW3_N-241" value="АБС: архив/хранение" style="shape=partialRectangle;html=1;whiteSpace=wrap;connectable=0;strokeColor=inherit;overflow=hidden;fillColor=none;top=0;left=0;bottom=0;right=0;pointerEvents=1;align=left;" parent="O0AXEfCne8WzT-DTW3_N-234" vertex="1">
          <mxGeometry x="975" width="195" height="54" as="geometry">
            <mxRectangle width="195" height="54" as="alternateBounds" />
          </mxGeometry>
        </mxCell>
        <mxCell id="O0AXEfCne8WzT-DTW3_N-242" value="" style="shape=tableRow;horizontal=0;startSize=0;swimlaneHead=0;swimlaneBody=0;strokeColor=inherit;top=0;left=0;bottom=0;right=0;collapsible=0;dropTarget=0;fillColor=none;points=[[0,0.5],[1,0.5]];portConstraint=eastwest;" parent="O0AXEfCne8WzT-DTW3_N-217" vertex="1">
          <mxGeometry y="179" width="1170" height="55" as="geometry" />
        </mxCell>
        <mxCell id="O0AXEfCne8WzT-DTW3_N-243" value="&lt;table data-start=&quot;2052&quot; data-end=&quot;2894&quot; class=&quot;w-fit min-w-(--thread-content-width)&quot; style=&quot;&quot;&gt;&lt;tbody data-start=&quot;2363&quot; data-end=&quot;2894&quot;&gt;&lt;tr data-start=&quot;2551&quot; data-end=&quot;2650&quot;&gt;&lt;td data-start=&quot;2551&quot; data-end=&quot;2566&quot; data-col-size=&quot;sm&quot;&gt;&lt;b&gt;Управление обслуживанием депозитных продуктов&lt;br&gt;&lt;i&gt;Бэк-офис&lt;/i&gt;&lt;/b&gt;&lt;/td&gt;&lt;td data-col-size=&quot;sm&quot; data-start=&quot;2566&quot; data-end=&quot;2596&quot;&gt;&lt;/td&gt;&lt;/tr&gt;&lt;/tbody&gt;&lt;/table&gt;" style="shape=partialRectangle;html=1;whiteSpace=wrap;connectable=0;strokeColor=#82b366;overflow=hidden;fillColor=#d5e8d4;top=0;left=0;bottom=0;right=0;pointerEvents=1;align=left;" parent="O0AXEfCne8WzT-DTW3_N-242" vertex="1">
          <mxGeometry width="242" height="55" as="geometry">
            <mxRectangle width="242" height="55" as="alternateBounds" />
          </mxGeometry>
        </mxCell>
        <mxCell id="O0AXEfCne8WzT-DTW3_N-244" value="" style="shape=partialRectangle;html=1;whiteSpace=wrap;connectable=0;strokeColor=inherit;overflow=hidden;fillColor=none;top=0;left=0;bottom=0;right=0;pointerEvents=1;align=left;" parent="O0AXEfCne8WzT-DTW3_N-242" vertex="1">
          <mxGeometry x="242" width="157" height="55" as="geometry">
            <mxRectangle width="157" height="55" as="alternateBounds" />
          </mxGeometry>
        </mxCell>
        <mxCell id="O0AXEfCne8WzT-DTW3_N-245" value="" style="shape=partialRectangle;html=1;whiteSpace=wrap;connectable=0;strokeColor=inherit;overflow=hidden;fillColor=none;top=0;left=0;bottom=0;right=0;pointerEvents=1;align=left;" parent="O0AXEfCne8WzT-DTW3_N-242" vertex="1">
          <mxGeometry x="399" width="140" height="55" as="geometry">
            <mxRectangle width="140" height="55" as="alternateBounds" />
          </mxGeometry>
        </mxCell>
        <mxCell id="O0AXEfCne8WzT-DTW3_N-246" value="" style="shape=partialRectangle;html=1;whiteSpace=wrap;connectable=0;strokeColor=inherit;overflow=hidden;fillColor=none;top=0;left=0;bottom=0;right=0;pointerEvents=1;align=left;" parent="O0AXEfCne8WzT-DTW3_N-242" vertex="1">
          <mxGeometry x="539" width="138" height="55" as="geometry">
            <mxRectangle width="138" height="55" as="alternateBounds" />
          </mxGeometry>
        </mxCell>
        <mxCell id="O0AXEfCne8WzT-DTW3_N-247" value="Excel/Email специальной ставки для крупных клиентов" style="shape=partialRectangle;html=1;whiteSpace=wrap;connectable=0;strokeColor=inherit;overflow=hidden;fillColor=none;top=0;left=0;bottom=0;right=0;pointerEvents=1;align=left;" parent="O0AXEfCne8WzT-DTW3_N-242" vertex="1">
          <mxGeometry x="677" width="160" height="55" as="geometry">
            <mxRectangle width="160" height="55" as="alternateBounds" />
          </mxGeometry>
        </mxCell>
        <mxCell id="O0AXEfCne8WzT-DTW3_N-248" value="" style="shape=partialRectangle;html=1;whiteSpace=wrap;connectable=0;strokeColor=inherit;overflow=hidden;fillColor=none;top=0;left=0;bottom=0;right=0;pointerEvents=1;align=left;" parent="O0AXEfCne8WzT-DTW3_N-242" vertex="1">
          <mxGeometry x="837" width="138" height="55" as="geometry">
            <mxRectangle width="138" height="55" as="alternateBounds" />
          </mxGeometry>
        </mxCell>
        <mxCell id="O0AXEfCne8WzT-DTW3_N-249" value="Документы по депозитам в АБС" style="shape=partialRectangle;html=1;whiteSpace=wrap;connectable=0;strokeColor=inherit;overflow=hidden;fillColor=none;top=0;left=0;bottom=0;right=0;pointerEvents=1;align=left;" parent="O0AXEfCne8WzT-DTW3_N-242" vertex="1">
          <mxGeometry x="975" width="195" height="55" as="geometry">
            <mxRectangle width="195" height="55" as="alternateBounds" />
          </mxGeometry>
        </mxCell>
        <mxCell id="O0AXEfCne8WzT-DTW3_N-250" value="" style="shape=tableRow;horizontal=0;startSize=0;swimlaneHead=0;swimlaneBody=0;strokeColor=inherit;top=0;left=0;bottom=0;right=0;collapsible=0;dropTarget=0;fillColor=none;points=[[0,0.5],[1,0.5]];portConstraint=eastwest;" parent="O0AXEfCne8WzT-DTW3_N-217" vertex="1">
          <mxGeometry y="234" width="1170" height="82" as="geometry" />
        </mxCell>
        <mxCell id="O0AXEfCne8WzT-DTW3_N-251" value="&lt;table data-start=&quot;2052&quot; data-end=&quot;2894&quot; class=&quot;w-fit min-w-(--thread-content-width)&quot; style=&quot;&quot;&gt;&lt;tbody data-start=&quot;2363&quot; data-end=&quot;2894&quot;&gt;&lt;tr data-start=&quot;2651&quot; data-end=&quot;2791&quot;&gt;&lt;td data-start=&quot;2651&quot; data-end=&quot;2676&quot; data-col-size=&quot;sm&quot;&gt;&lt;table data-start=&quot;2052&quot; data-end=&quot;2894&quot; class=&quot;w-fit min-w-(--thread-content-width)&quot;&gt;&lt;tbody data-start=&quot;2363&quot; data-end=&quot;2894&quot;&gt;&lt;tr data-start=&quot;2551&quot; data-end=&quot;2650&quot;&gt;&lt;td data-start=&quot;2551&quot; data-end=&quot;2566&quot; data-col-size=&quot;sm&quot;&gt;&lt;b&gt;Управление обслуживанием кредитных продуктов&lt;/b&gt;&lt;b&gt;&lt;br&gt;&lt;i&gt;Бэк-офис&lt;/i&gt;&lt;/b&gt;&lt;/td&gt;&lt;td data-col-size=&quot;sm&quot; data-start=&quot;2566&quot; data-end=&quot;2596&quot;&gt;&lt;/td&gt;&lt;/tr&gt;&lt;/tbody&gt;&lt;/table&gt;&lt;/td&gt;&lt;td data-col-size=&quot;sm&quot; data-start=&quot;2676&quot; data-end=&quot;2700&quot;&gt;&lt;br&gt;&lt;/td&gt;&lt;/tr&gt;&lt;/tbody&gt;&lt;/table&gt;" style="shape=partialRectangle;html=1;whiteSpace=wrap;connectable=0;strokeColor=#82b366;overflow=hidden;fillColor=#d5e8d4;top=0;left=0;bottom=0;right=0;pointerEvents=1;align=left;" parent="O0AXEfCne8WzT-DTW3_N-250" vertex="1">
          <mxGeometry width="242" height="82" as="geometry">
            <mxRectangle width="242" height="82" as="alternateBounds" />
          </mxGeometry>
        </mxCell>
        <mxCell id="O0AXEfCne8WzT-DTW3_N-252" value="" style="shape=partialRectangle;html=1;whiteSpace=wrap;connectable=0;strokeColor=inherit;overflow=hidden;fillColor=none;top=0;left=0;bottom=0;right=0;pointerEvents=1;align=left;strokeWidth=2;" parent="O0AXEfCne8WzT-DTW3_N-250" vertex="1">
          <mxGeometry x="242" width="157" height="82" as="geometry">
            <mxRectangle width="157" height="82" as="alternateBounds" />
          </mxGeometry>
        </mxCell>
        <mxCell id="O0AXEfCne8WzT-DTW3_N-253" value="" style="shape=partialRectangle;html=1;whiteSpace=wrap;connectable=0;strokeColor=inherit;overflow=hidden;fillColor=none;top=0;left=0;bottom=0;right=0;pointerEvents=1;align=left;strokeWidth=2;" parent="O0AXEfCne8WzT-DTW3_N-250" vertex="1">
          <mxGeometry x="399" width="140" height="82" as="geometry">
            <mxRectangle width="140" height="82" as="alternateBounds" />
          </mxGeometry>
        </mxCell>
        <mxCell id="O0AXEfCne8WzT-DTW3_N-254" value="" style="shape=partialRectangle;html=1;whiteSpace=wrap;connectable=0;strokeColor=inherit;overflow=hidden;fillColor=none;top=0;left=0;bottom=0;right=0;pointerEvents=1;align=left;strokeWidth=2;" parent="O0AXEfCne8WzT-DTW3_N-250" vertex="1">
          <mxGeometry x="539" width="138" height="82" as="geometry">
            <mxRectangle width="138" height="82" as="alternateBounds" />
          </mxGeometry>
        </mxCell>
        <mxCell id="O0AXEfCne8WzT-DTW3_N-255" value="&lt;div&gt;- расчет ставки в Excel&lt;br&gt;- Email со ставкой/риском&lt;/div&gt;&lt;div&gt;- анализ в АБС&lt;/div&gt;" style="shape=partialRectangle;html=1;whiteSpace=wrap;connectable=0;strokeColor=inherit;overflow=hidden;fillColor=none;top=0;left=0;bottom=0;right=0;pointerEvents=1;align=left;" parent="O0AXEfCne8WzT-DTW3_N-250" vertex="1">
          <mxGeometry x="677" width="160" height="82" as="geometry">
            <mxRectangle width="160" height="82" as="alternateBounds" />
          </mxGeometry>
        </mxCell>
        <mxCell id="O0AXEfCne8WzT-DTW3_N-256" value="Кредитный конвейер (Camunda), скоринг" style="shape=partialRectangle;html=1;whiteSpace=wrap;connectable=0;strokeColor=inherit;overflow=hidden;fillColor=none;top=0;left=0;bottom=0;right=0;pointerEvents=1;align=left;" parent="O0AXEfCne8WzT-DTW3_N-250" vertex="1">
          <mxGeometry x="837" width="138" height="82" as="geometry">
            <mxRectangle width="138" height="82" as="alternateBounds" />
          </mxGeometry>
        </mxCell>
        <mxCell id="O0AXEfCne8WzT-DTW3_N-257" value="Договоры кредитов (АБС/Конвейер)" style="shape=partialRectangle;html=1;whiteSpace=wrap;connectable=0;strokeColor=inherit;overflow=hidden;fillColor=none;top=0;left=0;bottom=0;right=0;pointerEvents=1;align=left;" parent="O0AXEfCne8WzT-DTW3_N-250" vertex="1">
          <mxGeometry x="975" width="195" height="82" as="geometry">
            <mxRectangle width="195" height="82" as="alternateBounds" />
          </mxGeometry>
        </mxCell>
        <mxCell id="O0AXEfCne8WzT-DTW3_N-258" value="" style="shape=tableRow;horizontal=0;startSize=0;swimlaneHead=0;swimlaneBody=0;strokeColor=inherit;top=0;left=0;bottom=0;right=0;collapsible=0;dropTarget=0;fillColor=none;points=[[0,0.5],[1,0.5]];portConstraint=eastwest;" parent="O0AXEfCne8WzT-DTW3_N-217" vertex="1">
          <mxGeometry y="316" width="1170" height="50" as="geometry" />
        </mxCell>
        <mxCell id="O0AXEfCne8WzT-DTW3_N-259" value="&lt;b&gt;Кол-центр&lt;/b&gt;" style="shape=partialRectangle;html=1;whiteSpace=wrap;connectable=0;strokeColor=#82b366;overflow=hidden;fillColor=#d5e8d4;top=0;left=0;bottom=0;right=0;pointerEvents=1;align=left;" parent="O0AXEfCne8WzT-DTW3_N-258" vertex="1">
          <mxGeometry width="242" height="50" as="geometry">
            <mxRectangle width="242" height="50" as="alternateBounds" />
          </mxGeometry>
        </mxCell>
        <mxCell id="O0AXEfCne8WzT-DTW3_N-260" value="" style="shape=partialRectangle;html=1;whiteSpace=wrap;connectable=0;strokeColor=inherit;overflow=hidden;fillColor=none;top=0;left=0;bottom=0;right=0;pointerEvents=1;align=left;" parent="O0AXEfCne8WzT-DTW3_N-258" vertex="1">
          <mxGeometry x="242" width="157" height="50" as="geometry">
            <mxRectangle width="157" height="50" as="alternateBounds" />
          </mxGeometry>
        </mxCell>
        <mxCell id="O0AXEfCne8WzT-DTW3_N-261" value="CRM → АБС (обращения)" style="shape=partialRectangle;html=1;whiteSpace=wrap;connectable=0;strokeColor=inherit;overflow=hidden;fillColor=none;top=0;left=0;bottom=0;right=0;pointerEvents=1;align=left;opacity=20;" parent="O0AXEfCne8WzT-DTW3_N-258" vertex="1">
          <mxGeometry x="399" width="140" height="50" as="geometry">
            <mxRectangle width="140" height="50" as="alternateBounds" />
          </mxGeometry>
        </mxCell>
        <mxCell id="O0AXEfCne8WzT-DTW3_N-262" value="После обработки обращения будет отправлена СМС" style="shape=partialRectangle;html=1;whiteSpace=wrap;connectable=0;strokeColor=inherit;overflow=hidden;fillColor=none;top=0;left=0;bottom=0;right=0;pointerEvents=1;align=left;" parent="O0AXEfCne8WzT-DTW3_N-258" vertex="1">
          <mxGeometry x="539" width="138" height="50" as="geometry">
            <mxRectangle width="138" height="50" as="alternateBounds" />
          </mxGeometry>
        </mxCell>
        <mxCell id="O0AXEfCne8WzT-DTW3_N-263" value="Эскалация в БО депозитов&lt;div&gt;CRM → АБС&lt;/div&gt;" style="shape=partialRectangle;html=1;whiteSpace=wrap;connectable=0;strokeColor=inherit;overflow=hidden;fillColor=none;top=0;left=0;bottom=0;right=0;pointerEvents=1;align=left;" parent="O0AXEfCne8WzT-DTW3_N-258" vertex="1">
          <mxGeometry x="677" width="160" height="50" as="geometry">
            <mxRectangle width="160" height="50" as="alternateBounds" />
          </mxGeometry>
        </mxCell>
        <mxCell id="O0AXEfCne8WzT-DTW3_N-264" value="Эскалация в Конвейер" style="shape=partialRectangle;html=1;whiteSpace=wrap;connectable=0;strokeColor=inherit;overflow=hidden;fillColor=none;top=0;left=0;bottom=0;right=0;pointerEvents=1;align=left;" parent="O0AXEfCne8WzT-DTW3_N-258" vertex="1">
          <mxGeometry x="837" width="138" height="50" as="geometry">
            <mxRectangle width="138" height="50" as="alternateBounds" />
          </mxGeometry>
        </mxCell>
        <mxCell id="O0AXEfCne8WzT-DTW3_N-265" value="" style="shape=partialRectangle;html=1;whiteSpace=wrap;connectable=0;strokeColor=inherit;overflow=hidden;fillColor=none;top=0;left=0;bottom=0;right=0;pointerEvents=1;align=left;" parent="O0AXEfCne8WzT-DTW3_N-258" vertex="1">
          <mxGeometry x="975" width="195" height="50" as="geometry">
            <mxRectangle width="195" height="50" as="alternateBounds" />
          </mxGeometry>
        </mxCell>
        <mxCell id="O0AXEfCne8WzT-DTW3_N-267" style="shape=tableRow;horizontal=0;startSize=0;swimlaneHead=0;swimlaneBody=0;strokeColor=inherit;top=0;left=0;bottom=0;right=0;collapsible=0;dropTarget=0;fillColor=none;points=[[0,0.5],[1,0.5]];portConstraint=eastwest;" parent="O0AXEfCne8WzT-DTW3_N-217" vertex="1">
          <mxGeometry y="366" width="1170" height="42" as="geometry" />
        </mxCell>
        <mxCell id="O0AXEfCne8WzT-DTW3_N-268" value="&lt;b&gt;Партнерский кол-центр&lt;/b&gt;" style="shape=partialRectangle;html=1;whiteSpace=wrap;connectable=0;strokeColor=#82b366;overflow=hidden;fillColor=#d5e8d4;top=0;left=0;bottom=0;right=0;pointerEvents=1;align=left;" parent="O0AXEfCne8WzT-DTW3_N-267" vertex="1">
          <mxGeometry width="242" height="42" as="geometry">
            <mxRectangle width="242" height="42" as="alternateBounds" />
          </mxGeometry>
        </mxCell>
        <mxCell id="O0AXEfCne8WzT-DTW3_N-269" value="" style="shape=partialRectangle;html=1;whiteSpace=wrap;connectable=0;strokeColor=inherit;overflow=hidden;fillColor=none;top=0;left=0;bottom=0;right=0;pointerEvents=1;align=left;" parent="O0AXEfCne8WzT-DTW3_N-267" vertex="1">
          <mxGeometry x="242" width="157" height="42" as="geometry">
            <mxRectangle width="157" height="42" as="alternateBounds" />
          </mxGeometry>
        </mxCell>
        <mxCell id="O0AXEfCne8WzT-DTW3_N-270" value="Внешняя платформа → CRM" style="shape=partialRectangle;html=1;whiteSpace=wrap;connectable=0;strokeColor=inherit;overflow=hidden;fillColor=none;top=0;left=0;bottom=0;right=0;pointerEvents=1;align=left;" parent="O0AXEfCne8WzT-DTW3_N-267" vertex="1">
          <mxGeometry x="399" width="140" height="42" as="geometry">
            <mxRectangle width="140" height="42" as="alternateBounds" />
          </mxGeometry>
        </mxCell>
        <mxCell id="O0AXEfCne8WzT-DTW3_N-271" value="(по скриптам)" style="shape=partialRectangle;html=1;whiteSpace=wrap;connectable=0;strokeColor=inherit;overflow=hidden;fillColor=none;top=0;left=0;bottom=0;right=0;pointerEvents=1;align=left;" parent="O0AXEfCne8WzT-DTW3_N-267" vertex="1">
          <mxGeometry x="539" width="138" height="42" as="geometry">
            <mxRectangle width="138" height="42" as="alternateBounds" />
          </mxGeometry>
        </mxCell>
        <mxCell id="O0AXEfCne8WzT-DTW3_N-272" value="" style="shape=partialRectangle;html=1;whiteSpace=wrap;connectable=0;strokeColor=inherit;overflow=hidden;fillColor=none;top=0;left=0;bottom=0;right=0;pointerEvents=1;align=left;" parent="O0AXEfCne8WzT-DTW3_N-267" vertex="1">
          <mxGeometry x="677" width="160" height="42" as="geometry">
            <mxRectangle width="160" height="42" as="alternateBounds" />
          </mxGeometry>
        </mxCell>
        <mxCell id="O0AXEfCne8WzT-DTW3_N-273" value="" style="shape=partialRectangle;html=1;whiteSpace=wrap;connectable=0;strokeColor=inherit;overflow=hidden;fillColor=none;top=0;left=0;bottom=0;right=0;pointerEvents=1;align=left;" parent="O0AXEfCne8WzT-DTW3_N-267" vertex="1">
          <mxGeometry x="837" width="138" height="42" as="geometry">
            <mxRectangle width="138" height="42" as="alternateBounds" />
          </mxGeometry>
        </mxCell>
        <mxCell id="O0AXEfCne8WzT-DTW3_N-274" value="" style="shape=partialRectangle;html=1;whiteSpace=wrap;connectable=0;strokeColor=inherit;overflow=hidden;fillColor=none;top=0;left=0;bottom=0;right=0;pointerEvents=1;align=left;" parent="O0AXEfCne8WzT-DTW3_N-267" vertex="1">
          <mxGeometry x="975" width="195" height="42" as="geometry">
            <mxRectangle width="195" height="42" as="alternateBounds" />
          </mxGeometry>
        </mxCell>
        <mxCell id="O0AXEfCne8WzT-DTW3_N-275" style="shape=tableRow;horizontal=0;startSize=0;swimlaneHead=0;swimlaneBody=0;strokeColor=inherit;top=0;left=0;bottom=0;right=0;collapsible=0;dropTarget=0;fillColor=none;points=[[0,0.5],[1,0.5]];portConstraint=eastwest;" parent="O0AXEfCne8WzT-DTW3_N-217" vertex="1">
          <mxGeometry y="408" width="1170" height="50" as="geometry" />
        </mxCell>
        <mxCell id="O0AXEfCne8WzT-DTW3_N-276" value="&lt;b&gt;Команда цифровой трансформации&lt;/b&gt;" style="shape=partialRectangle;html=1;whiteSpace=wrap;connectable=0;strokeColor=#82b366;overflow=hidden;fillColor=#d5e8d4;top=0;left=0;bottom=0;right=0;pointerEvents=1;align=left;" parent="O0AXEfCne8WzT-DTW3_N-275" vertex="1">
          <mxGeometry width="242" height="50" as="geometry">
            <mxRectangle width="242" height="50" as="alternateBounds" />
          </mxGeometry>
        </mxCell>
        <mxCell id="O0AXEfCne8WzT-DTW3_N-277" value="" style="shape=partialRectangle;html=1;whiteSpace=wrap;connectable=0;strokeColor=inherit;overflow=hidden;fillColor=none;top=0;left=0;bottom=0;right=0;pointerEvents=1;align=left;" parent="O0AXEfCne8WzT-DTW3_N-275" vertex="1">
          <mxGeometry x="242" width="157" height="50" as="geometry">
            <mxRectangle width="157" height="50" as="alternateBounds" />
          </mxGeometry>
        </mxCell>
        <mxCell id="O0AXEfCne8WzT-DTW3_N-278" value="" style="shape=partialRectangle;html=1;whiteSpace=wrap;connectable=0;strokeColor=inherit;overflow=hidden;fillColor=none;top=0;left=0;bottom=0;right=0;pointerEvents=1;align=left;" parent="O0AXEfCne8WzT-DTW3_N-275" vertex="1">
          <mxGeometry x="399" width="140" height="50" as="geometry">
            <mxRectangle width="140" height="50" as="alternateBounds" />
          </mxGeometry>
        </mxCell>
        <mxCell id="O0AXEfCne8WzT-DTW3_N-279" value="" style="shape=partialRectangle;html=1;whiteSpace=wrap;connectable=0;strokeColor=inherit;overflow=hidden;fillColor=none;top=0;left=0;bottom=0;right=0;pointerEvents=1;align=left;" parent="O0AXEfCne8WzT-DTW3_N-275" vertex="1">
          <mxGeometry x="539" width="138" height="50" as="geometry">
            <mxRectangle width="138" height="50" as="alternateBounds" />
          </mxGeometry>
        </mxCell>
        <mxCell id="O0AXEfCne8WzT-DTW3_N-280" value="Анализ процессов, определение потребностей автоматизации" style="shape=partialRectangle;html=1;whiteSpace=wrap;connectable=0;strokeColor=inherit;overflow=hidden;fillColor=none;top=0;left=0;bottom=0;right=0;pointerEvents=1;align=left;" parent="O0AXEfCne8WzT-DTW3_N-275" vertex="1">
          <mxGeometry x="677" width="160" height="50" as="geometry">
            <mxRectangle width="160" height="50" as="alternateBounds" />
          </mxGeometry>
        </mxCell>
        <mxCell id="O0AXEfCne8WzT-DTW3_N-281" value="Планирование цифровизации кредитных процессов" style="shape=partialRectangle;html=1;whiteSpace=wrap;connectable=0;strokeColor=inherit;overflow=hidden;fillColor=none;top=0;left=0;bottom=0;right=0;pointerEvents=1;align=left;" parent="O0AXEfCne8WzT-DTW3_N-275" vertex="1">
          <mxGeometry x="837" width="138" height="50" as="geometry">
            <mxRectangle width="138" height="50" as="alternateBounds" />
          </mxGeometry>
        </mxCell>
        <mxCell id="O0AXEfCne8WzT-DTW3_N-282" value="Координация внедрения цифровых решений" style="shape=partialRectangle;html=1;whiteSpace=wrap;connectable=0;strokeColor=inherit;overflow=hidden;fillColor=none;top=0;left=0;bottom=0;right=0;pointerEvents=1;align=left;" parent="O0AXEfCne8WzT-DTW3_N-275" vertex="1">
          <mxGeometry x="975" width="195" height="50" as="geometry">
            <mxRectangle width="195" height="50" as="alternateBounds" />
          </mxGeometry>
        </mxCell>
        <mxCell id="7pb7SZeK2bGXs_BuvQ-F-2" value="" style="shape=ext;double=1;rounded=1;whiteSpace=wrap;html=1;fillColor=#dae8fc;strokeColor=#6c8ebf;" vertex="1" parent="1">
          <mxGeometry x="510" y="330" width="140" height="50" as="geometry" />
        </mxCell>
        <mxCell id="7pb7SZeK2bGXs_BuvQ-F-11" value="CRM" style="shape=ext;double=1;rounded=1;whiteSpace=wrap;html=1;fillColor=#dae8fc;strokeColor=#6c8ebf;" vertex="1" parent="1">
          <mxGeometry x="600" y="520" width="50" height="90" as="geometry" />
        </mxCell>
        <mxCell id="7pb7SZeK2bGXs_BuvQ-F-1" value="АБС" style="shape=ext;double=1;rounded=1;whiteSpace=wrap;html=1;fillColor=#e1d5e7;strokeColor=default;" vertex="1" parent="1">
          <mxGeometry x="430" y="680" width="120" height="30" as="geometry" />
        </mxCell>
        <mxCell id="7pb7SZeK2bGXs_BuvQ-F-3" value="СМС-шлюз" style="shape=ext;double=1;rounded=1;whiteSpace=wrap;html=1;fillColor=#1ba1e2;fontColor=#ffffff;strokeColor=#006EAF;" vertex="1" parent="1">
          <mxGeometry x="570" y="680" width="120" height="30" as="geometry" />
        </mxCell>
        <mxCell id="7pb7SZeK2bGXs_BuvQ-F-5" value="Конвеер" style="shape=ext;double=1;rounded=1;whiteSpace=wrap;html=1;fillColor=#d5e8d4;strokeColor=#82b366;" vertex="1" parent="1">
          <mxGeometry x="570" y="725" width="120" height="30" as="geometry" />
        </mxCell>
        <mxCell id="7pb7SZeK2bGXs_BuvQ-F-6" value="Excel" style="shape=ext;double=1;rounded=1;whiteSpace=wrap;html=1;fillColor=#f8cecc;fillStyle=auto;strokeColor=#b85450;" vertex="1" parent="1">
          <mxGeometry x="900" y="710" width="120" height="30" as="geometry" />
        </mxCell>
        <mxCell id="7pb7SZeK2bGXs_BuvQ-F-9" value="" style="shape=ext;double=1;rounded=1;whiteSpace=wrap;html=1;fillColor=#d5e8d4;strokeColor=#82b366;" vertex="1" parent="1">
          <mxGeometry x="950" y="440" width="330" height="60" as="geometry" />
        </mxCell>
        <mxCell id="7pb7SZeK2bGXs_BuvQ-F-10" value="" style="shape=ext;double=1;rounded=1;whiteSpace=wrap;html=1;fillColor=#e1d5e7;strokeColor=#9673a6;" vertex="1" parent="1">
          <mxGeometry x="350" y="260" width="160" height="80" as="geometry" />
        </mxCell>
        <mxCell id="7pb7SZeK2bGXs_BuvQ-F-12" value="CRM" style="shape=ext;double=1;rounded=1;whiteSpace=wrap;html=1;fillColor=#dae8fc;strokeColor=#6c8ebf;" vertex="1" parent="1">
          <mxGeometry x="430" y="720" width="120" height="40" as="geometry" />
        </mxCell>
        <mxCell id="7pb7SZeK2bGXs_BuvQ-F-13" value="" style="shape=ext;double=1;rounded=1;whiteSpace=wrap;html=1;fillColor=#1ba1e2;fontColor=#ffffff;strokeColor=#006EAF;" vertex="1" parent="1">
          <mxGeometry x="650" y="330" width="140" height="50" as="geometry" />
        </mxCell>
        <mxCell id="7pb7SZeK2bGXs_BuvQ-F-15" value="" style="shape=ext;double=1;rounded=1;whiteSpace=wrap;html=1;fillColor=#d5e8d4;strokeColor=#82b366;" vertex="1" parent="1">
          <mxGeometry x="950" y="330" width="140" height="50" as="geometry" />
        </mxCell>
        <mxCell id="7pb7SZeK2bGXs_BuvQ-F-16" value="" style="shape=ext;double=1;rounded=1;whiteSpace=wrap;html=1;fillColor=#e1d5e7;strokeColor=#9673a6;" vertex="1" parent="1">
          <mxGeometry x="1090" y="270" width="190" height="200" as="geometry" />
        </mxCell>
        <mxCell id="7pb7SZeK2bGXs_BuvQ-F-19" value="" style="shape=ext;double=1;rounded=1;whiteSpace=wrap;html=1;fillColor=#e1d5e7;strokeColor=#9673a6;" vertex="1" parent="1">
          <mxGeometry x="790" y="280" width="160" height="290" as="geometry" />
        </mxCell>
        <mxCell id="7pb7SZeK2bGXs_BuvQ-F-17" value="" style="shape=ext;double=1;rounded=1;whiteSpace=wrap;html=1;fillColor=#d5e8d4;strokeColor=#82b366;" vertex="1" parent="1">
          <mxGeometry x="950" y="440" width="140" height="130" as="geometry" />
        </mxCell>
        <mxCell id="7pb7SZeK2bGXs_BuvQ-F-20" value="" style="shape=ext;double=1;rounded=1;whiteSpace=wrap;html=1;fillColor=#1ba1e2;fontColor=#ffffff;strokeColor=#006EAF;" vertex="1" parent="1">
          <mxGeometry x="650" y="520" width="140" height="50" as="geometry" />
        </mxCell>
        <mxCell id="7pb7SZeK2bGXs_BuvQ-F-22" value="excel" style="shape=ext;double=1;rounded=1;whiteSpace=wrap;html=1;fillColor=#f8cecc;fillStyle=auto;strokeColor=#b85450;" vertex="1" parent="1">
          <mxGeometry x="900" y="380" width="50" height="110" as="geometry" />
        </mxCell>
        <mxCell id="7pb7SZeK2bGXs_BuvQ-F-24" value="email" style="shape=ext;double=1;rounded=1;whiteSpace=wrap;html=1;fillColor=#ffe6cc;fillStyle=auto;strokeColor=#d79b00;" vertex="1" parent="1">
          <mxGeometry x="790" y="380" width="60" height="110" as="geometry" />
        </mxCell>
        <mxCell id="7pb7SZeK2bGXs_BuvQ-F-27" value="EMAIL" style="shape=ext;double=1;rounded=1;whiteSpace=wrap;html=1;fillColor=#ffe6cc;fillStyle=auto;strokeColor=#d79b00;" vertex="1" parent="1">
          <mxGeometry x="900" y="740" width="120" height="30" as="geometry" />
        </mxCell>
        <mxCell id="7pb7SZeK2bGXs_BuvQ-F-28" value="" style="shape=ext;double=1;rounded=1;whiteSpace=wrap;html=1;fillColor=#e1d5e7;strokeColor=#9673a6;" vertex="1" parent="1">
          <mxGeometry x="950" y="260" width="140" height="70" as="geometry" />
        </mxCell>
        <mxCell id="7pb7SZeK2bGXs_BuvQ-F-29" value="Система кол-центра" style="shape=ext;double=1;rounded=1;whiteSpace=wrap;html=1;fillColor=#6d8764;strokeColor=#3A5431;fontColor=#ffffff;" vertex="1" parent="1">
          <mxGeometry x="707" y="680" width="120" height="30" as="geometry" />
        </mxCell>
        <mxCell id="7pb7SZeK2bGXs_BuvQ-F-30" value="Система партнерского кол-центра" style="shape=ext;double=1;rounded=1;whiteSpace=wrap;html=1;fillColor=#76608a;strokeColor=#432D57;fontColor=#ffffff;" vertex="1" parent="1">
          <mxGeometry x="707" y="725" width="120" height="50" as="geometry" />
        </mxCell>
        <mxCell id="7pb7SZeK2bGXs_BuvQ-F-31" value="Система кол-центра" style="shape=ext;double=1;rounded=1;whiteSpace=wrap;html=1;fillColor=#6d8764;strokeColor=#3A5431;fontColor=#ffffff;" vertex="1" parent="1">
          <mxGeometry x="510" y="520" width="90" height="50" as="geometry" />
        </mxCell>
        <mxCell id="7pb7SZeK2bGXs_BuvQ-F-32" value="Система партнерского кол-центра" style="shape=ext;double=1;rounded=1;whiteSpace=wrap;html=1;fillColor=#76608a;strokeColor=#432D57;fontColor=#ffffff;" vertex="1" parent="1">
          <mxGeometry x="510" y="570" width="90" height="40" as="geometry" />
        </mxCell>
        <mxCell id="7pb7SZeK2bGXs_BuvQ-F-35" value="АБС" style="shape=ext;double=1;rounded=1;whiteSpace=wrap;html=1;fillColor=#e1d5e7;strokeColor=none;" vertex="1" parent="1">
          <mxGeometry x="370" y="285" width="120" height="30" as="geometry" />
        </mxCell>
        <mxCell id="7pb7SZeK2bGXs_BuvQ-F-36" value="АБС" style="shape=ext;double=1;rounded=1;whiteSpace=wrap;html=1;fillColor=#e1d5e7;strokeColor=none;" vertex="1" parent="1">
          <mxGeometry x="960" y="270" width="120" height="30" as="geometry" />
        </mxCell>
        <mxCell id="7pb7SZeK2bGXs_BuvQ-F-37" value="АБС" style="shape=ext;double=1;rounded=1;whiteSpace=wrap;html=1;fillColor=#e1d5e7;strokeColor=none;" vertex="1" parent="1">
          <mxGeometry x="1121" y="360" width="120" height="30" as="geometry" />
        </mxCell>
        <mxCell id="7pb7SZeK2bGXs_BuvQ-F-38" value="Конвеер" style="shape=ext;double=1;rounded=1;whiteSpace=wrap;html=1;fillColor=#d5e8d4;strokeColor=none;" vertex="1" parent="1">
          <mxGeometry x="960" y="490" width="120" height="30" as="geometry" />
        </mxCell>
        <mxCell id="7pb7SZeK2bGXs_BuvQ-F-39" value="Конвеер" style="shape=ext;double=1;rounded=1;whiteSpace=wrap;html=1;fillColor=#d5e8d4;strokeColor=none;" vertex="1" parent="1">
          <mxGeometry x="1125" y="470" width="120" height="20" as="geometry" />
        </mxCell>
        <mxCell id="7pb7SZeK2bGXs_BuvQ-F-40" value="Конвеер" style="shape=ext;double=1;rounded=1;whiteSpace=wrap;html=1;fillColor=#d5e8d4;strokeColor=none;" vertex="1" parent="1">
          <mxGeometry x="960" y="340" width="120" height="30" as="geometry" />
        </mxCell>
        <mxCell id="7pb7SZeK2bGXs_BuvQ-F-42" value="CRM" style="shape=ext;double=1;rounded=1;whiteSpace=wrap;html=1;fillColor=#dae8fc;strokeColor=none;" vertex="1" parent="1">
          <mxGeometry x="520" y="335" width="120" height="40" as="geometry" />
        </mxCell>
        <mxCell id="7pb7SZeK2bGXs_BuvQ-F-43" value="СМС-шлюз" style="shape=ext;double=1;rounded=1;whiteSpace=wrap;html=1;fillColor=#1ba1e2;fontColor=#ffffff;strokeColor=none;" vertex="1" parent="1">
          <mxGeometry x="660" y="525" width="120" height="35" as="geometry" />
        </mxCell>
        <mxCell id="7pb7SZeK2bGXs_BuvQ-F-44" value="СМС-шлюз" style="shape=ext;double=1;rounded=1;whiteSpace=wrap;html=1;fillColor=#1ba1e2;fontColor=#ffffff;strokeColor=none;" vertex="1" parent="1">
          <mxGeometry x="660" y="337.5" width="120" height="35" as="geometry" />
        </mxCell>
        <mxCell id="7pb7SZeK2bGXs_BuvQ-F-4" value="EMAIL" style="shape=ext;double=1;rounded=1;whiteSpace=wrap;html=1;fillColor=#ffe6cc;fillStyle=auto;strokeColor=#d79b00;" vertex="1" parent="1">
          <mxGeometry x="790" y="270" width="160" height="30" as="geometry" />
        </mxCell>
        <mxCell id="7pb7SZeK2bGXs_BuvQ-F-45" value="АБС" style="shape=ext;double=1;rounded=1;whiteSpace=wrap;html=1;fillColor=#e1d5e7;strokeColor=none;" vertex="1" parent="1">
          <mxGeometry x="850" y="418" width="50" height="30" as="geometry" />
        </mxCell>
      </root>
    </mxGraphModel>
  </diagram>
</mxfile>
